<?xml version="1.0" encoding="iso-8859-1"?>
<!-- Generator: Adobe Illustrator 19.0.0, SVG Export Plug-In . SVG Version: 6.00 Build 0)  -->
<svg version="1.1" id="Capa_1" xmlns="http://www.w3.org/2000/svg" xmlns:xlink="http://www.w3.org/1999/xlink" x="0px" y="0px"
	 viewBox="0 0 512 512" style="enable-background:new 0 0 512 512;" xml:space="preserve">
<path style="fill:#54B88B;" d="M399.112,340.385h-43.064c0-55.254-44.793-100.047-100.047-100.047S155.954,285.13,155.954,340.385
	H112.89c0-79.032,64.079-143.111,143.111-143.111S399.112,261.352,399.112,340.385z"/>
<path style="fill:#FBDD56;" d="M442.176,340.385h-43.064c0-79.032-64.079-143.111-143.111-143.111S112.89,261.353,112.89,340.385
	H69.826c0-102.822,83.354-186.175,186.175-186.175S442.176,237.563,442.176,340.385z"/>
<path style="fill:#FF6E6E;" d="M485.24,340.385h-43.064c0-102.822-83.354-186.175-186.175-186.175S69.826,237.563,69.826,340.385
	H26.761c0-126.6,102.64-229.239,229.239-229.239S485.24,213.785,485.24,340.385z"/>
<path style="opacity:0.1;enable-background:new    ;" d="M95.451,259.915c-25.536,0-49.191,12.503-63.713,32.804
	c-3.253,15.378-4.977,31.32-4.977,47.666h129.192c0-14.112,2.928-27.539,8.2-39.715C150.511,275.73,124.171,259.915,95.451,259.915z
	 M480.263,292.719c-14.523-20.301-38.178-32.804-63.713-32.804c-28.719,0-55.058,15.816-68.702,40.755
	c5.272,12.176,8.2,25.602,8.2,39.715H485.24C485.24,324.038,483.516,308.097,480.263,292.719z"/>
<g>
	<path style="fill:#C9F4FF;" d="M157.447,321.199c-3.903-0.651-7.199-3.295-8.824-6.903c-9.128-20.269-29.5-34.381-53.172-34.381
		s-44.044,14.112-53.172,34.381c-1.625,3.608-4.921,6.251-8.824,6.903c-18.763,3.131-33.118,19.285-33.449,38.858
		c-0.38,22.435,18.449,40.797,40.887,40.797h109.115c22.438,0,41.267-18.362,40.887-40.797
		C190.565,340.484,176.211,324.33,157.447,321.199z"/>
	<path style="fill:#C9F4FF;" d="M478.546,321.199c-3.903-0.651-7.199-3.295-8.824-6.903c-9.128-20.269-29.5-34.381-53.171-34.381
		c-23.672,0-44.044,14.112-53.172,34.381c-1.625,3.608-4.921,6.251-8.824,6.903c-18.763,3.131-33.118,19.285-33.449,38.858
		c-0.38,22.435,18.449,40.797,40.887,40.797h109.115c22.439,0,41.267-18.362,40.887-40.797
		C511.664,340.484,497.309,324.33,478.546,321.199z"/>
</g>
<g>
	<path style="fill:#AEEAF9;" d="M87.617,280.447c-20.267,2.724-37.234,15.856-45.337,33.849c-1.625,3.608-4.921,6.251-8.824,6.903
		c-18.763,3.131-33.118,19.285-33.449,38.858c-0.38,22.435,18.449,40.797,40.887,40.797h68.428
		C39.16,377.655,54.661,300.15,87.617,280.447z"/>
	<path style="fill:#AEEAF9;" d="M408.715,280.447c-20.267,2.724-37.234,15.856-45.337,33.849c-1.625,3.608-4.921,6.251-8.824,6.903
		c-18.763,3.131-33.118,19.285-33.449,38.858c-0.38,22.435,18.449,40.797,40.887,40.797h68.428
		C360.258,377.655,375.76,300.15,408.715,280.447z"/>
</g>
<g>
</g>
<g>
</g>
<g>
</g>
<g>
</g>
<g>
</g>
<g>
</g>
<g>
</g>
<g>
</g>
<g>
</g>
<g>
</g>
<g>
</g>
<g>
</g>
<g>
</g>
<g>
</g>
<g>
</g>
</svg>
