<?xml version="1.0" encoding="iso-8859-1"?>
<!-- Generator: Adobe Illustrator 19.0.0, SVG Export Plug-In . SVG Version: 6.00 Build 0)  -->
<svg version="1.1" id="Layer_1" xmlns="http://www.w3.org/2000/svg" xmlns:xlink="http://www.w3.org/1999/xlink" x="0px" y="0px"
	 viewBox="0 0 507.733 507.733" style="enable-background:new 0 0 507.733 507.733;" xml:space="preserve">
<g transform="translate(5)">
	<path style="fill:#FFD0A1;" d="M164.387,157.013c14.507-9.387,35.84-21.333,59.733-26.453h0.853
		c-1.707,19.627-1.707,31.573-1.707,31.573h51.2c0,0,0-11.947-1.707-31.573h0.853c21.333,4.267,40.96,14.507,54.613,23.893
		l8.533-0.853c0,0,23.04-8.533,57.173-8.533c0,25.6-8.533,42.667-34.133,51.2c0,51.2-17.067,85.333-17.067,85.333l-17.067,25.6
		c0,0-25.6-17.067-76.8-17.067s-76.8,17.067-76.8,17.067L155,281.6c0,0-17.067-34.133-17.067-85.333
		c-25.6-8.533-34.133-25.6-34.133-51.2c34.133,0,57.173,8.533,57.173,8.533L164.387,157.013z M248.867,469.333
		c0-9.387-7.68-17.067-17.067-17.067h-17.067c-2.56,0-5.973,0.853-7.68,1.707l-0.853-1.707h-34.133h-8.533c0,0,0-51.2,17.067-76.8
		c0,0,7.68-10.24,14.507-16.213l0.853-0.853c13.653,10.24,31.573,17.92,52.907,17.92c20.48,0,38.4-6.827,52.053-17.067l0,0
		c9.387,6.827,16.213,16.213,16.213,16.213c17.067,25.6,17.067,76.8,17.067,76.8h-8.533h-33.28v2.56
		c-2.56-1.707-5.973-2.56-9.387-2.56h-17.067C256.547,452.267,248.867,459.947,248.867,469.333z"/>
	<path style="fill:#C49AE9;" d="M230.093,93.867L230.093,93.867c-1.707,12.8-3.413,24.747-4.267,34.133l0,0v2.56
		c-1.707,19.627-1.707,31.573-1.707,31.573h51.2c0,0,0-11.947-1.707-31.573c0-0.853,0-1.707,0-2.56h-23.04h23.04
		c-0.853-9.387-2.56-21.333-4.267-34.133l0,0c-3.413-24.747-9.387-53.76-19.627-85.333C239.48,40.107,233.507,69.12,230.093,93.867z
		"/>
	<path style="fill:#AAB1BA;" d="M300.067,503.467h51.2v-34.133l0,0c0-9.387-7.68-17.067-17.067-17.067h-8.533h-33.28v2.56
		c2.56,1.707,4.267,3.413,5.12,5.973c-1.707-2.56-3.413-4.267-5.12-5.973c-2.56-1.707-5.973-2.56-9.387-2.56h-17.067
		c-9.387,0-17.067,7.68-17.067,17.067l0,0v8.533v25.6H300.067L300.067,503.467z M197.667,486.4v17.067h51.2v-25.6v-8.533l0,0
		c0-9.387-7.68-17.067-17.067-17.067h-17.067c-2.56,0-5.973,0.853-7.68,1.707c-2.56,1.707-5.12,3.413-6.827,5.973
		c1.707-2.56,3.413-4.267,6.827-5.973l-0.853-1.707h-34.133h-8.533c-9.387,0-17.067,7.68-17.067,17.067l0,0v34.133h51.2V486.4z"/>
	<path style="fill:#F2EDDA;" d="M248.867,290.133c51.2,0,76.8,17.067,76.8,17.067c5.12,15.36-5.12,36.693-24.747,51.2
		c-13.653,10.24-31.573,17.067-52.053,17.067c-21.333,0-39.253-7.68-52.907-17.92c-19.627-14.507-29.013-35.84-23.893-50.347
		C172.067,307.2,197.667,290.133,248.867,290.133"/>
	<circle style="fill:#FFD0A1;" cx="44.067" cy="68.267" r="8.533"/>
	<g>
		<circle style="fill:#7EE1E6;" cx="411" cy="8.533" r="8.533"/>
		<circle style="fill:#7EE1E6;" cx="172.067" cy="85.333" r="8.533"/>
	</g>
	<circle style="fill:#C49AE9;" cx="334.2" cy="102.4" r="8.533"/>
</g>
<path style="fill:#51565F;" d="M356.267,507.733h-204.8c-2.56,0-4.267-1.707-4.267-4.267v-34.133v-0.853
	c0-9.387,7.68-17.92,17.067-19.627c0-12.8,2.56-52.907,17.92-75.093c1.707-1.707,4.267-2.56,5.973-0.853
	c1.707,1.707,2.56,4.267,0.853,5.973c-13.653,19.627-16.213,57.173-16.213,69.973h4.267c2.56,0,4.267,1.707,4.267,4.267
	c0,2.56-1.707,4.267-4.267,4.267h-8.533c-6.827,0-12.8,5.12-12.8,12.8v29.867H198.4v-30.72v-0.853
	c0-9.387,6.827-17.92,16.213-19.627l-7.68-55.467c0-2.56,1.707-4.267,3.413-5.12c2.56,0,4.267,1.707,5.12,3.413l7.68,56.32H236.8
	c5.12,0,9.387,1.707,12.8,4.267V409.6c0-2.56,1.707-4.267,4.267-4.267c2.56,0,4.267,1.707,4.267,4.267v42.667
	c3.413-2.56,7.68-4.267,12.8-4.267h13.653l7.68-56.32c0-2.56,2.56-4.267,5.12-3.413c2.56,0,4.267,2.56,3.413,5.12l-7.68,55.467
	c9.387,1.707,16.213,10.24,16.213,20.48v0.853v29.867H352v-30.72c0-7.68-5.973-12.8-12.8-12.8h-8.533
	c-2.56,0-4.267-1.707-4.267-4.267s1.707-4.267,4.267-4.267h4.267c-0.853-12.8-2.56-50.347-16.213-69.973
	c-1.707-1.707-0.853-4.267,0.853-5.973c1.707-1.707,4.267-0.853,5.973,0.853c15.36,22.187,17.067,62.293,17.92,75.093
	c9.387,1.707,17.067,10.24,17.067,20.48v34.987C360.533,506.027,358.827,507.733,356.267,507.733z M258.133,499.2H300.8v-29.867l0,0
	c0-6.827-5.973-12.8-12.8-12.8l0,0h-17.067c-6.827,0-12.8,5.12-12.8,12.8V499.2z M206.933,499.2H249.6v-29.867l0,0
	c0-6.827-5.973-12.8-12.8-12.8h-17.067l0,0c-6.827,0-12.8,5.12-12.8,12.8V499.2z M253.867,379.733
	c-34.133,0-59.733-17.92-71.68-34.987c-9.387-13.653-12.8-27.307-9.387-38.4c0-0.853,0.853-1.707,1.707-2.56
	c0.853-0.853,27.307-17.92,79.36-17.92s77.653,17.067,79.36,17.92c0.853,0.853,1.707,1.707,1.707,2.56
	c3.413,11.093,0.853,25.6-9.387,38.4C313.6,361.813,288,379.733,253.867,379.733z M180.48,309.76
	c-1.707,8.533,0.853,19.627,8.533,29.867c11.093,15.36,34.133,31.573,64.853,31.573s53.76-16.213,64.853-31.573
	c7.68-10.24,10.24-21.333,8.533-29.867c-5.973-3.413-29.867-15.36-73.387-15.36C211.2,294.4,186.453,307.2,180.48,309.76z
	 M279.467,337.067c-2.56,0-4.267-1.707-4.267-4.267v-8.533c0-2.56,1.707-4.267,4.267-4.267s4.267,1.707,4.267,4.267v8.533
	C283.733,335.36,282.027,337.067,279.467,337.067z M228.267,337.067c-2.56,0-4.267-1.707-4.267-4.267v-8.533
	c0-2.56,1.707-4.267,4.267-4.267s4.267,1.707,4.267,4.267v8.533C232.533,335.36,230.827,337.067,228.267,337.067z M160,285.867
	c-1.707,0-3.413-0.853-3.413-2.56c-0.853-1.707-17.067-34.133-17.92-84.48c-23.893-8.533-34.133-25.6-34.133-54.613
	c0-2.56,1.707-4.267,4.267-4.267c34.133,0,57.173,8.533,58.027,8.533c0.853,0.853,1.707,1.707,2.56,2.56
	c14.507-9.387,34.133-19.627,56.32-24.747c2.56-28.16,9.387-71.68,23.893-119.467c0.853-3.413,6.827-3.413,8.533,0
	c14.507,47.787,20.48,91.307,23.893,119.467c22.187,5.12,41.813,16.213,56.32,24.747c0.853-0.853,1.707-1.707,2.56-2.56
	c0.853,0,23.893-8.533,58.88-8.533c2.56,0,4.267,1.707,4.267,4.267c0,28.16-10.24,45.227-34.133,54.613
	c-0.853,50.347-17.067,82.773-17.92,84.48c-0.853,1.707-3.413,2.56-5.973,1.707c-1.707-0.853-2.56-3.413-1.707-5.973
	c0,0,16.213-34.133,16.213-83.627c0-1.707,0.853-3.413,2.56-4.267c21.333-6.827,29.867-19.627,30.72-42.667
	c-24.747,0.853-43.52,5.973-49.493,7.68c8.533,5.973,13.653,10.24,13.653,10.24c1.707,1.707,1.707,4.267,0.853,5.973
	c-1.707,1.707-4.267,1.707-5.973,0.853c0,0-32.427-28.16-70.827-38.4c1.707,16.213,1.707,25.6,1.707,26.453l0,0l0,0
	c0,2.56-1.707,4.267-4.267,4.267h-51.2c-2.56,0-4.267-1.707-4.267-4.267l0,0l0,0c0-0.853,0-10.24,1.707-26.453
	c-38.4,10.24-70.827,37.547-70.827,38.4c-1.707,1.707-4.267,1.707-5.973-0.853c-1.707-1.707-1.707-4.267,0.853-5.973
	c0.853-0.853,5.12-5.12,13.653-10.24c-5.973-1.707-23.893-6.827-49.493-7.68c0.853,23.04,10.24,35.84,30.72,42.667
	c1.707,0.853,2.56,2.56,2.56,4.267c0,49.493,16.213,82.773,16.213,83.627c0.853,1.707,0,4.267-1.707,5.973
	C161.707,285.867,160.853,285.867,160,285.867z M232.533,157.867H275.2c0-5.12-0.853-13.653-1.707-25.6H234.24
	C233.387,144.213,232.533,152.747,232.533,157.867z M235.093,123.733h37.547c-0.853-7.68-1.707-16.213-3.413-25.6h-30.72
	C236.8,107.52,235.947,116.053,235.093,123.733z M239.36,89.6h28.16c-3.413-19.627-7.68-41.813-14.507-65.707
	C247.04,47.787,242.773,69.973,239.36,89.6z M450.133,251.733c-2.56,0-4.267-1.707-4.267-4.267v-12.8h-12.8
	c-2.56,0-4.267-1.707-4.267-4.267c0-2.56,1.707-4.267,4.267-4.267h12.8v-12.8c0-2.56,1.707-4.267,4.267-4.267
	s4.267,1.707,4.267,4.267v12.8h12.8c2.56,0,4.267,1.707,4.267,4.267c0,2.56-1.707,4.267-4.267,4.267h-12.8v12.8
	C454.4,250.027,452.693,251.733,450.133,251.733z M300.8,234.667c-5.12,0-8.533-3.413-8.533-8.533s3.413-8.533,8.533-8.533
	s8.533,3.413,8.533,8.533S305.92,234.667,300.8,234.667z M206.933,234.667c-5.12,0-8.533-3.413-8.533-8.533s3.413-8.533,8.533-8.533
	c5.12,0,8.533,3.413,8.533,8.533S212.053,234.667,206.933,234.667z M91.733,226.133c-2.56,0-4.267-1.707-4.267-4.267V217.6H83.2
	c-2.56,0-4.267-1.707-4.267-4.267s1.707-4.267,4.267-4.267h4.267V204.8c0-2.56,1.707-4.267,4.267-4.267S96,202.24,96,204.8v4.267
	h4.267c2.56,0,4.267,1.707,4.267,4.267s-1.707,4.267-4.267,4.267H96v4.267C96,224.427,94.293,226.133,91.733,226.133z M23.467,140.8
	c-2.56,0-4.267-1.707-4.267-4.267v-12.8H6.4c-2.56,0-4.267-1.707-4.267-4.267c0-2.56,1.707-4.267,4.267-4.267h12.8v-12.8
	c0-2.56,1.707-4.267,4.267-4.267s4.267,1.707,4.267,4.267v12.8h12.8c2.56,0,4.267,1.707,4.267,4.267c0,2.56-1.707,4.267-4.267,4.267
	h-12.8v12.8C27.733,139.093,26.027,140.8,23.467,140.8z M492.8,55.467c-2.56,0-4.267-1.707-4.267-4.267v-4.267h-4.267
	c-2.56,0-4.267-1.707-4.267-4.267c0-2.56,1.707-4.267,4.267-4.267h4.267v-4.267c0-2.56,1.707-4.267,4.267-4.267
	s4.267,1.707,4.267,4.267V38.4h4.267c2.56,0,4.267,1.707,4.267,4.267c0,2.56-1.707,4.267-4.267,4.267h-4.267V51.2
	C497.067,53.76,495.36,55.467,492.8,55.467z M108.8,29.867c-2.56,0-4.267-1.707-4.267-4.267v-4.267h-4.267
	c-2.56,0-4.267-1.707-4.267-4.267s1.707-4.267,4.267-4.267h4.267V8.533c0-2.56,1.707-4.267,4.267-4.267
	c2.56,0,4.267,1.707,4.267,4.267V12.8h4.267c2.56,0,4.267,1.707,4.267,4.267s-1.707,4.267-4.267,4.267h-4.267V25.6
	C113.067,28.16,111.36,29.867,108.8,29.867z"/>
<g>
</g>
<g>
</g>
<g>
</g>
<g>
</g>
<g>
</g>
<g>
</g>
<g>
</g>
<g>
</g>
<g>
</g>
<g>
</g>
<g>
</g>
<g>
</g>
<g>
</g>
<g>
</g>
<g>
</g>
</svg>
