<?xml version="1.0" encoding="iso-8859-1"?>
<!-- Generator: Adobe Illustrator 19.0.0, SVG Export Plug-In . SVG Version: 6.00 Build 0)  -->
<svg version="1.1" id="Layer_1" xmlns="http://www.w3.org/2000/svg" xmlns:xlink="http://www.w3.org/1999/xlink" x="0px" y="0px"
	 viewBox="0 0 512 512" style="enable-background:new 0 0 512 512;" xml:space="preserve">
<g>
	<rect x="328.331" y="479.766" style="fill:#847E74;" width="26.797" height="24.08"/>
	<rect x="292.446" y="479.766" style="fill:#847E74;" width="35.886" height="24.08"/>
	<rect x="181.158" y="480.821" style="fill:#847E74;" width="26.254" height="23.025"/>
	<rect x="152.099" y="480.821" style="fill:#847E74;" width="29.059" height="23.025"/>
</g>
<g>
	<path style="fill:#D3D1CD;" d="M207.41,421.966v58.856h-26.254v-64.879C189.745,418.769,198.605,420.704,207.41,421.966z"/>
	<path style="fill:#D3D1CD;" d="M355.128,383.427v96.34H328.33v-78.327c10.425-5.544,19.22-11.686,26.58-18.264L355.128,383.427z"/>
</g>
<path style="fill:#F9D780;" d="M485.245,8.155L400.58,98.342l-4.088,4.359c-7.838,8.349-20.492,10.012-29.917,4.011
	c-0.783-0.5-1.533-1.044-2.261-1.642c-0.174-0.141-0.337-0.283-0.511-0.435c-13.002-11.067-10.262-31.918,5.088-39.441
	L485.245,8.155z"/>
<path style="fill:#EDEAE4;" d="M398.297,262.649c-6.588,0.239-13.404-0.38-20.318-1.968l-0.228,1.011
	c14.415,32.777,19.122,84.034-22.84,121.485c-7.36,6.577-16.155,12.719-26.58,18.264v78.327h-35.886v-61.726
	c0,0-41.756,10.121-85.034,3.924c-8.806-1.261-17.666-3.196-26.254-6.023v64.879h-29.059v-54.954c0,0-9.925-1.924-22.96-6.979
	c-14.763-3.685-28.037-11.132-38.723-21.286c-17.818-16.905-28.472-41.267-26.939-68.097c2.424-42.702,40.43-80.033,83.164-81.762
	c2.62-0.109,5.218-0.098,7.784,0.022c14.328,0.685,27.754,4.849,39.441,11.665c4.446,2.587,8.643,5.555,12.534,8.86
	c8.686,7.36,21.134,8.914,31.168,3.533c0.467-0.25,0.924-0.511,1.37-0.783c0.337-0.196,0.652-0.413,0.968-0.609
	c44.213-27.134,5.588-70.141,5.588-132.954s53.899-69.717,53.899-69.717c0-8.251,1.022-15.144,2.707-20.905
	c8.175-27.906,32.037-29.341,32.037-29.341v47.453h0.054c1.413-48.301,34.701-50.442,34.701-50.442v50.67
	c-15.35,7.523-18.09,28.374-5.088,39.441c0.174,0.152,0.337,0.294,0.511,0.435c9.567,7.871,23.699,6.664,32.179-2.37l4.088-4.359
	l0.011,0.011c8.556,12.708,17.905,26.004,27.754,39.169c0,0,0,0.011,0.011,0.022c5.349,7.142,10.839,14.23,16.437,21.177
	C485.451,209.097,448.804,260.888,398.297,262.649z"/>
<path style="fill:#D3D1CD;" d="M293.901,107.3c0,0-46.836,17.819-46.836,52.812c0,22.347,8.034,38.402,12.143,54.168
	c6.557,25.16,91.987,48.482,97.278,38.324c0,0-74.591-24.975-83.197-110.766"/>
<g>
	<path style="fill:#FFFFFF;" d="M356.487,252.604c96.66-18.835,72.543-113.549,71.869-115.06
		c5.349,7.142,10.839,14.23,16.437,21.177C485.451,209.097,447.076,290.925,356.487,252.604z"/>
	<path style="fill:#FFFFFF;" d="M398.297,262.638v0.011c-6.588,0.239-13.404-0.38-20.318-1.968l-0.228,1.011
		c14.415,32.777,19.122,84.034-22.84,121.485c-7.36,6.577-16.155,12.719-26.58,18.264c72.663-100.689,14.426-156.262,13.295-157.338
		L398.297,262.638z"/>
</g>
<path style="fill:#FCACDF;" d="M302.098,46.856c-1.685,5.762-2.707,12.654-2.707,20.905c0,0-53.899,6.903-53.899,69.717
	s38.625,105.82-5.588,132.954c-0.315,0.196-0.631,0.413-0.968,0.609c-0.446,0.272-0.902,0.533-1.37,0.783
	c-10.034,5.381-22.482,3.827-31.168-3.533c-3.892-3.305-8.088-6.273-12.534-8.86c37.712-23.025,3.761-57.628,13.622-140.792
	C217.553,33.843,302.098,46.856,302.098,46.856z"/>
<path style="fill:#F9E9C7;" d="M485.245,8.155L400.58,98.342l-4.088,4.359c-7.838,8.349-20.492,10.012-29.917,4.011L485.245,8.155z"
	/>
<path style="fill:#FCACDF;" d="M88.904,399.017c-15.698,31.852-59.683,33.157-59.683,33.157s28.493-24.036,7.262-80.599
	c-21.242-56.563-10.067-158.371,57.008-158.371c43.463,0,56.878,32.026,60.933,54.562c-2.566-0.12-5.164-0.13-7.784-0.022
	c-42.735,1.729-80.74,39.06-83.164,81.762c-1.533,26.83,9.121,51.192,26.939,68.097L88.904,399.017z"/>
<polygon style="fill:#FFFFFF;" points="312.426,408.181 328.33,402.745 328.33,479.767 312.426,479.767 "/>
<g>
	<path style="fill:#D3D1CD;" d="M192.559,419.149c66.598-9.882,99.885-40.886,99.885-40.886v39.778
		C292.445,418.041,234.672,437.728,192.559,419.149z"/>
	<path style="fill:#D3D1CD;" d="M101.525,339.693c0,59.791,50.573,86.176,50.573,86.176s-9.925-1.924-22.96-6.979
		c-14.763-3.685-28.037-11.132-38.723-21.286c-17.818-16.905-28.472-41.267-26.939-68.097c2.424-42.702,40.43-80.033,83.164-81.762
		c2.62-0.109,5.218-0.098,7.784,0.022C154.424,247.766,101.525,276.64,101.525,339.693z"/>
</g>
<path style="fill:#DB91C5;" d="M63.476,329.506c-1.533,26.83,9.121,51.192,26.939,68.097l-1.511,1.413
	c-15.698,31.852-59.683,33.157-59.683,33.157s28.493-24.036,7.262-80.599c-1.663-4.425-3.12-9.121-4.381-14.035
	c10.371-10.382,16.72-24.504,20.481-36.027c3.751-11.534,4.914-20.47,4.914-20.47c0.554-68.195,58.683-26.406,58.683-26.406
	l-0.533,0.761C86.969,268.682,65.292,297.599,63.476,329.506z"/>
<path style="fill:#E58376;" d="M331.228,185.141H314.56c-4.503,0-8.153-3.651-8.153-8.153c0-4.503,3.651-8.153,8.153-8.153h16.669
	c4.503,0,8.153,3.651,8.153,8.153C339.382,181.49,335.731,185.141,331.228,185.141z"/>
<path d="M491.802,3.309c-2.341-3.167-6.612-4.209-10.146-2.475L377.044,52.118V14.525c0-2.254-0.933-4.406-2.576-5.948
	s-3.858-2.334-6.101-2.189c-1.107,0.072-11.106,0.923-21.286,8.796c-1.734,1.342-3.323,2.779-4.793,4.288v-1.958
	c0-2.247-0.928-4.395-2.563-5.936c-1.637-1.54-3.84-2.341-6.079-2.202c-1.124,0.067-25.873,1.894-37.1,28.777
	c-12.913-0.74-41.693-0.013-65.04,17.734c-18.074,13.739-28.879,34.528-32.116,61.791c-4.242,35.781-0.531,63.403,2.181,83.571
	c3.715,27.638,4.484,39.139-8.158,48.654c-10.05-5.134-21.026-8.451-32.263-9.755c-8.476-35.592-32.297-55.098-67.658-55.098
	c-4.503,0-8.153,3.651-8.153,8.153c0,4.503,3.651,8.153,8.153,8.153c16.808,0,29.949,5.379,39.058,15.988
	c5.823,6.78,9.405,14.98,11.608,22.392c-8.842,0.579-17.562,2.509-25.926,5.695c-17.033-14.647-36.827-16.102-54.953-3.806
	c-3.727,2.528-4.699,7.598-2.17,11.324c2.528,3.727,7.598,4.699,11.324,2.17c9.929-6.735,19.772-7.236,29.374-1.544
	c-6.24,3.882-12.143,8.522-17.582,13.867c-17.344,17.046-27.604,38.922-28.891,61.596c-1.468,25.687,7.427,50.617,24.55,69.445
	c-7.907,12.99-22.038,19.402-33.414,22.545c6.375-14.379,10.515-38.033-2.357-72.323C27.144,303.512,33.089,232.92,66.193,209.641
	c3.683-2.591,4.569-7.676,1.979-11.359c-2.59-3.684-7.676-4.568-11.359-1.98c-19.322,13.589-32.349,39.423-36.678,72.743
	c-3.759,28.929-0.5,60.852,8.716,85.394c18.719,49.869-3.98,70.698-4.885,71.502c-2.65,2.236-3.597,5.904-2.358,9.144
	c1.21,3.164,4.244,5.242,7.614,5.242c0.08,0,0.162-0.001,0.244-0.003c1.855-0.055,42.644-1.621,62.582-30.596
	c13.414,13.414,47.614,21.428,51.899,22.571v71.549c0,4.503,3.651,8.153,8.153,8.153h29.059h26.254c4.503,0,8.153-3.651,8.153-8.153
	v-72.713c7.423,0.708,14.705,1.007,21.66,1.007c19.738,0,36.829-2.342,47.068-4.145v75.851c0,4.503,3.651,8.153,8.153,8.153h62.683
	c4.503,0,8.153-3.651,8.153-8.153V386.544c14.039-13.389,23.726-29.165,28.814-46.95c1.239-4.329-1.267-8.844-5.595-10.082
	c-4.327-1.238-8.843,1.267-10.081,5.595c-4.576,15.99-13.638,30.116-26.941,41.989c-7.083,6.329-15.486,12.097-24.975,17.145
	c-2.661,1.415-4.326,4.184-4.326,7.199v70.173h-19.579v-93.351c0-4.503-3.651-8.153-8.153-8.153c-4.503,0-8.153,3.651-8.153,8.153
	v33.14c-12.903,2.422-44.025,7.03-75.725,2.492c-8.872-1.271-17.236-3.187-24.86-5.696c-4.277-1.408-8.886,0.918-10.294,5.195
	c-0.267,0.813-0.399,1.637-0.409,2.45v56.825h-12.752v-46.8c0-3.898-2.768-7.253-6.593-8.002
	c-0.093-0.018-27.899-8.377-30.501-9.332c-10.054-3.686-19.316-9.421-27.13-16.846c-16.842-15.978-25.739-38.473-24.411-61.72
	c2.192-38.59,36.699-72.514,75.362-74.077c2.331-0.097,4.709-0.09,7.056,0.02c12.55,0.6,24.903,4.253,35.729,10.568
	c4.014,2.335,7.835,5.037,11.365,8.034c11.286,9.563,27.477,11.37,40.283,4.503c0.812-0.434,2.758-1.633,2.758-1.633
	c33.58-20.608,26.217-50.538,18.42-82.225c-2.809-11.418-5.714-23.225-7.442-36.126c-0.598-4.464-4.699-7.596-9.163-6.999
	c-4.463,0.598-7.597,4.701-6.999,9.163c1.845,13.776,4.993,26.57,7.77,37.858c8.316,33.803,11.319,50.663-11.148,64.452
	c-0.254,0.158-1.457,0.894-1.893,1.135c-6.963,3.734-15.823,2.703-22.037-2.562c-1.256-1.066-2.551-2.092-3.867-3.095
	c15.885-15.412,13.207-35.457,9.922-59.904c-2.74-20.381-6.149-45.746-2.149-79.478c2.69-22.65,11.333-39.694,25.694-50.656
	c17.231-13.153,39.049-14.832,50.921-14.611c-0.325,2.22-0.591,4.489-0.747,6.841c-5.906,1.637-14.833,4.917-23.733,11.244
	c-13.859,9.85-30.379,29.134-30.379,65.06c0,4.503,3.651,8.153,8.153,8.153c4.503,0,8.153-3.651,8.153-8.153
	c0-54.596,44.904-61.372,46.782-61.63c4.069-0.521,7.117-3.985,7.117-8.087c0-6.955,0.8-13.218,2.378-18.613
	c3.508-11.972,10.431-17.866,16.06-20.755v36.574c0,0.201,0.016,0.398,0.03,0.596c-0.026,0.973-0.03,1.888-0.03,2.622
	c0,4.503,3.651,8.153,8.153,8.153s8.153-3.651,8.153-8.153c0-0.984,0.008-1.937,0.05-2.979c0.499-17.048,5.236-29.366,14.078-36.613
	c1.461-1.197,2.925-2.156,4.319-2.923v34.946c-7.202,5.154-12,13.083-13.126,22.062c-1.337,10.665,2.722,21.176,10.861,28.129
	c0.235,0.205,0.457,0.396,0.66,0.561c5.771,4.747,12.809,7.076,19.856,7.076c7.262-0.001,14.527-2.485,20.416-7.335
	c1.235,1.799,2.469,3.579,3.701,5.349c-11.178,3.522-18.968,14.339-18.174,26.541c0.28,4.314,3.867,7.624,8.128,7.624
	c0.178,0,0.358-0.005,0.538-0.017c4.493-0.292,7.899-4.172,7.607-8.665c-0.349-5.357,3.723-10.005,9.083-10.36
	c1.348-0.091,2.706,0.118,3.981,0.586c8.2,11.295,16.284,21.888,24.18,31.676c6.04,7.483,10.346,15.189,12.894,22.869
	c-0.773,0.233-1.535,0.584-2.264,1.088c-2.879,1.992-4.142,5.706-3.142,9.052c1.013,3.391,4.258,5.793,7.799,5.793
	c0.121,0,0.237-0.025,0.358-0.03c0.095,8.868-2.291,17.451-7.217,25.34c-13.123,21.004-40.077,30.964-67.074,24.781
	c-6.611-1.517-13.17-3.984-19.497-7.335c-53.902-28.566-76.624-62.156-79.914-84.064c-2.512-16.726,3.973-32.967,19.276-48.269
	c3.184-3.184,3.184-8.346,0-11.53c-3.184-3.184-8.347-3.184-11.53,0c-19.163,19.163-27.194,40.096-23.872,62.221
	c7.448,49.601,69.549,86.059,88.406,96.053c6.045,3.202,12.292,5.724,18.628,7.55c3.824,9.273,8.036,22.983,8.539,39.218
	c0.137,4.415,3.759,7.901,8.145,7.901c0.086,0,0.172-0.001,0.258-0.004c4.501-0.139,8.036-3.902,7.897-8.402
	c-0.424-13.674-3.133-25.762-6.272-35.425c1.943,0.132,3.88,0.204,5.805,0.204c26.768-0.001,51.486-12.571,65.035-34.258
	c15.688-25.11,12.112-56.136-9.566-82.992c-12.953-16.057-26.441-34.35-40.145-54.436l80.194-85.43
	C493.884,10.864,494.143,6.476,491.802,3.309z M336.484,495.694v-7.773h10.491v7.773H336.484z M336.484,406.256
	c3.655-2.087,7.149-4.284,10.491-6.573v71.931h-10.491V406.256z M320.177,487.921v7.773h-19.579v-7.773H320.177z M189.31,495.694
	v-6.718h9.947v6.718H189.31z M189.31,426.751c3.236,0.801,6.553,1.518,9.947,2.142v43.776h-9.947V426.751z M173.003,488.975v6.718
	h-12.752v-6.718H173.003z M391.962,95.614c-4.4-17.305-2.409-27.885-1.139-32.089l19.608-9.613c-1.564,7.026-2.369,15.14-0.913,23
	L391.962,95.614z M369.176,98.504c-0.029-0.026-0.059-0.051-0.088-0.076c-4.03-3.43-5.96-8.431-5.296-13.722
	c0.674-5.37,3.84-9.813,8.687-12.189l0,0l0.5-0.245c-0.365,7.56,0.404,17.43,3.793,29.693c-2.619-0.387-5.152-1.442-7.313-3.219
	C369.362,98.667,369.273,98.588,369.176,98.504z M425.942,59.415c1.16-6.138,3.223-11.82,4.844-15.483l17.949-8.799L425.942,59.415z
	"/>
<path d="M415.993,203.305c0.864-7.29-7.977-11.987-13.504-7.09c-5.489,4.864-1.91,14.244,5.414,14.244
	C411.962,210.46,415.515,207.345,415.993,203.305z"/>
<path d="M345.993,138.787c2.593-0.172,5.099,0.679,7.052,2.393c1.955,1.713,3.124,4.085,3.295,6.679
	c0.295,4.493,4.181,7.898,8.671,7.601c4.493-0.296,7.897-4.178,7.601-8.671c-0.456-6.94-3.587-13.287-8.816-17.871
	c-5.23-4.585-11.932-6.856-18.871-6.403c-14.326,0.94-25.216,13.362-24.275,27.688c0.283,4.312,3.868,7.62,8.128,7.62
	c0.179,0,0.361-0.005,0.542-0.017c4.493-0.295,7.897-4.177,7.602-8.67C336.569,143.78,340.64,139.138,345.993,138.787z"/>
<g>
</g>
<g>
</g>
<g>
</g>
<g>
</g>
<g>
</g>
<g>
</g>
<g>
</g>
<g>
</g>
<g>
</g>
<g>
</g>
<g>
</g>
<g>
</g>
<g>
</g>
<g>
</g>
<g>
</g>
</svg>
